<svg viewBox="0 0 200 200" xmlns="http://www.w3.org/2000/svg"><g fill="none" fill-rule="evenodd"><rect fill="#FF5A00" width="200" height="200" rx="8"/><g fill="#FFF"><path d="M87.663 87.878c0 15.312-9.467 17.148-9.467 17.148h12.386c1.194 0 22.013.841 22.013-19.492 0-20.334-20.819-19.492-22.013-19.492H78.196s9.467 1.836 9.467 17.148v4.688M101.31 133.015h46.54v-17.073h-46.54z"/><path d="M149.75 88.03c0-15.228-13.907-21.987-21.603-21.987l-17.897-.002v.007-.007s14.74 5.069 14.74 21.99c0 19.014-11.615 23.7-11.615 23.7h15.122c5.227 0 21.254-3.107 21.254-23.7M50.428 133.015h21.708V66.042H50.428z"/></g></g></svg>