<?xml version="1.0" encoding="UTF-8"?>
<svg width="200px" height="200px" viewBox="0 0 200 200" version="1.1" xmlns="http://www.w3.org/2000/svg" xmlns:xlink="http://www.w3.org/1999/xlink">
    <!-- Generator: Sketch 59.1 (86144) - https://sketch.com -->
    <title>P2</title>
    <desc>Created with Sketch.</desc>
    <g id="P2" stroke="none" stroke-width="1" fill="none" fill-rule="evenodd">
        <rect id="Rectangle" fill="#FF5A00" x="0" y="0" width="200" height="200" rx="8"></rect>
        <g id="P2garant_cmyk" transform="translate(50.000000, 66.000000)" fill="#FFFFFF">
            <g id="Group-24" transform="translate(28.070175, 0.000000)">
                <path d="M9.59298246,21.8778947 C9.59298246,37.1901754 0.126315789,39.025614 0.126315789,39.025614 L12.5119298,39.025614 C13.7063158,39.025614 34.5252632,39.8670175 34.5252632,19.5340351 C34.5252632,-0.799649123 13.7063158,0.0424561404 12.5119298,0.0424561404 L0.126315789,0.0424561404 C0.126315789,0.0424561404 9.59298246,1.87789474 9.59298246,17.1901754 L9.59298246,21.8778947" id="Fill-23"></path>
            </g>
            <polygon id="Fill-25" points="51.3091228 67.0147368 97.8498246 67.0147368 97.8498246 49.9417544 51.3091228 49.9417544"></polygon>
            <path d="M99.7508772,22.0305263 C99.7508772,6.80175439 85.8431579,0.0431578947 78.1470175,0.0431578947 C73.5666667,0.0431578947 60.2501754,0.0410526316 60.2501754,0.0410526316 L60.2501754,0.0480701754 L60.2501754,0.0410526316 C60.2501754,0.0410526316 74.9891228,5.10982456 74.9891228,22.0305263 C74.9891228,41.0445614 63.3747368,45.7305263 63.3747368,45.7305263 C63.3747368,45.7305263 73.2719298,45.7305263 78.497193,45.7305263 C83.7242105,45.7305263 99.7508772,42.6235088 99.7508772,22.0305263" id="Fill-26"></path>
            <polygon id="Fill-27" points="0.428070175 67.0147368 22.1357895 67.0147368 22.1357895 0.0424561404 0.428070175 0.0424561404"></polygon>
        </g>
    </g>
</svg>