<?xml version="1.0" encoding="UTF-8"?>
<svg width="200px" height="200px" viewBox="0 0 200 200" version="1.1" xmlns="http://www.w3.org/2000/svg" xmlns:xlink="http://www.w3.org/1999/xlink">
    <!-- Generator: Sketch 59.1 (86144) - https://sketch.com -->
    <title>P3</title>
    <desc>Created with Sketch.</desc>
    <g id="P3" stroke="none" stroke-width="1" fill="none" fill-rule="evenodd">
        <rect id="Rectangle" fill="#17A872" x="0" y="0" width="200" height="200" rx="8"></rect>
        <g id="P3garant_cmyk" transform="translate(50.000000, 66.000000)" fill="#FFFFFF">
            <g id="Group-25" transform="translate(28.070175, 0.000000)">
                <path d="M34.5382456,19.0134504 C34.5635088,17.049145 34.7803509,-0.101480916 12.5803509,0.0414351145 L0.126315789,0.0414351145 C10.322807,3.33938931 9.52912281,16.0051908 9.5754386,17.204 L9.5754386,21.8830076 C9.52912281,23.0818168 9.86385965,36.6763969 0.126315789,39.046626 L12.3757895,39.046626 C27.657193,39.4841527 34.3863158,30.8905802 34.5382456,19.0134504" id="Fill-23"></path>
                <path d="M56.5715789,33.4300611 C61.6105263,32.9960458 71.4385965,30.5078321 71.4385965,16.7815725 C71.4385965,-0.675954198 54.0031579,0.0474045802 52.9677193,0.0474045802 L37.2849123,0.0474045802 C37.2849123,0.0474045802 49.2585965,0.188564885 49.2585965,14.7702137 L49.2585965,19.646916 C49.2585965,30.4126718 43.6049123,32.906855 41.5708772,33.345084 L41.5708772,33.517145 C43.6049123,33.9543206 49.2585965,36.4520153 49.2585965,47.215313 L49.2585965,52.0923664 C49.2585965,65.2402901 42.6680702,66.8158779 40.4729825,66.8158779 C38.277193,66.8158779 31.4063158,65.2402901 31.4063158,52.0923664 L31.4063158,48.5858321 C31.4063158,48.5426412 31.4091228,48.5005038 31.4091228,48.4580153 L10.8536842,48.4580153 C10.7929825,49.1399389 10.7596491,49.3344733 10.7596491,50.0796031 C10.7596491,67.5385344 27.9347368,67.0662443 28.9694737,67.0662443 L53.5077193,67.0662443 C54.5431579,67.0662443 71.7189474,67.5385344 71.7189474,50.0796031 C71.7189474,36.3554504 61.6105263,33.8682901 56.5715789,33.4300611" id="Fill-24"></path>
            </g>
            <polygon id="Fill-26" points="0.428070175 67.0662443 22.1347368 67.0662443 22.1347368 0.0414351145 0.428070175 0.0414351145"></polygon>
        </g>
    </g>
</svg>