<svg viewBox="0 0 200 200" xmlns="http://www.w3.org/2000/svg"><g fill="none" fill-rule="evenodd"><rect fill="#17A872" width="200" height="200" rx="8"/><g fill="#FFF"><path d="M112.608 85.013c.026-1.964.243-19.114-21.957-18.972H78.196c10.197 3.298 9.403 15.964 9.45 17.163v4.679c-.047 1.199.288 14.793-9.45 17.164h12.25c15.281.437 22.01-8.156 22.162-20.034"/><path d="M134.642 99.43c5.039-.434 14.867-2.922 14.867-16.648 0-17.458-17.436-16.735-18.471-16.735h-15.683s11.974.142 11.974 14.723v4.877c0 10.766-5.654 13.26-7.688 13.698v.172c2.034.437 7.688 2.935 7.688 13.698v4.877c0 13.148-6.59 14.724-8.786 14.724-2.196 0-9.067-1.576-9.067-14.724v-3.506c0-.043.003-.085.003-.128H88.924c-.06.682-.094.876-.094 1.622 0 17.459 17.175 16.986 18.21 16.986h24.538c1.035 0 18.211.473 18.211-16.986 0-13.725-10.108-16.212-15.147-16.65M50.428 133.066h21.707V66.041H50.428z"/></g></g></svg>